# xmcd
#
# Track frame offsets:
#	183
#	11693
#	23433
#	34280
#	44348
#	59865
#	69790
#	80348
#	92220
#	105413
#	118500
#	129190
#	140855
#	151513
#	164315
#	178338
#	190058
#	198148
#	207755
#	220848
#
# Disc length: 3088
#
# Revision: 1
# Processed by: cddbd v1.5.1PL0 Copyright (c) Steve Scherf et al.
# Submitted via: CDex 1.51
# Normalized: r0:DSETVAR1,TDELIM( - )
#
DISCID=0b0c0e14
DTITLE=Various Artist - Country's Clasics Vol. 2 CD 2
DYEAR=1990
DGENRE=Country
TTITLE0=Freddie Fender - Before the next teardrop falls
TTITLE1=Frankie Laine - Mule train
TTITLE2=Willie Nelson - I feel sorry for him
TTITLE3=Dolly Parton - Release me
TTITLE4=Kenny Rogers - My Washington woman
TTITLE5=Johnny Cash - Hey Porter
TTITLE6=Jim Nesbitt - Running bear
TTITLE7=Dolly Parton - Letter to Heaven
TTITLE8=Donna Fargo - Daddy
TTITLE9=Stonewall Jackson - I washed my hands in muddy water
TTITLE10=Billie Jo Spears - I'm so lonesome I could cry
TTITLE11=Willie Nelson - Is there something on your mind
TTITLE12=Del Wood - Snombird
TTITLE13=Patsy Cline - I fall to pieces
TTITLE14=Bob Luman - Lonely woman make good lovers
TTITLE15=Roger Miller - Little green apples
TTITLE16=Willie Nelson - Things to remember
TTITLE17=Merle Travis - 16 tons
TTITLE18=Don Williams - where do we go from here
TTITLE19=Sammi Smith - Help me make it through the night
EXTD=YEAR: 1990
EXTT0=
EXTT1=
EXTT2=
EXTT3=
EXTT4=
EXTT5=
EXTT6=
EXTT7=
EXTT8=
EXTT9=
EXTT10=
EXTT11=
EXTT12=
EXTT13=
EXTT14=
EXTT15=
EXTT16=
EXTT17=
EXTT18=
EXTT19=
PLAYORDER=
